<svg width="42" height="42" viewBox="0 0 42 42" fill="none" xmlns="http://www.w3.org/2000/svg">
<g clip-path="url(#clip0_111_3883)">
<path d="M42 21C42 32.5978 32.5978 42 21 42C9.40217 42 0 32.5978 0 21C0 9.40217 9.40217 0 21 0C32.5978 0 42 9.40217 42 21Z" fill="#FFCC4D"/>
<path d="M8.16683 30.3334C11.3885 30.3334 14.0002 27.7217 14.0002 24.5001C14.0002 21.2784 11.3885 18.6667 8.16683 18.6667C4.94517 18.6667 2.3335 21.2784 2.3335 24.5001C2.3335 27.7217 4.94517 30.3334 8.16683 30.3334Z" fill="#FF7892"/>
<path d="M33.8333 30.3334C37.055 30.3334 39.6667 27.7217 39.6667 24.5001C39.6667 21.2784 37.055 18.6667 33.8333 18.6667C30.6117 18.6667 28 21.2784 28 24.5001C28 27.7217 30.6117 30.3334 33.8333 30.3334Z" fill="#FF7892"/>
<path d="M33.1518 20.6769C33.0807 20.5707 31.3843 18.0834 27.9998 18.0834C24.6165 18.0834 22.919 20.5707 22.8478 20.6769C22.7719 20.7909 22.7385 20.928 22.7537 21.0642C22.7688 21.2003 22.8315 21.3268 22.9307 21.4213C23.0303 21.5157 23.1599 21.5723 23.2969 21.5813C23.4339 21.5902 23.5698 21.551 23.6808 21.4702C23.6948 21.4586 25.1532 20.4167 27.9998 20.4167C30.8302 20.4167 32.2862 21.4446 32.3188 21.4679C32.4291 21.5493 32.5645 21.5892 32.7013 21.5807C32.8381 21.5722 32.9675 21.5159 33.0668 21.4215C33.1662 21.3272 33.2292 21.2008 33.2447 21.0647C33.2603 20.9285 33.2274 20.7912 33.1518 20.6769ZM13.9998 18.0834C10.6165 18.0834 8.91901 20.5707 8.84784 20.6769C8.7714 20.7911 8.73772 20.9286 8.75275 21.0652C8.76778 21.2018 8.83055 21.3287 8.92999 21.4235C9.02943 21.5184 9.15916 21.5751 9.29631 21.5836C9.43346 21.5922 9.56923 21.552 9.67967 21.4702C9.69484 21.4586 11.152 20.4167 13.9998 20.4167C16.8302 20.4167 18.2862 21.4446 18.3188 21.4679C18.4292 21.5499 18.5649 21.5902 18.7021 21.5819C18.8393 21.5736 18.9691 21.5171 19.0687 21.4224C19.1683 21.3276 19.2312 21.2008 19.2464 21.0642C19.2617 20.9276 19.2281 20.7901 19.1518 20.6758C19.0807 20.5708 17.3843 18.0834 13.9998 18.0834ZM25.516 31.5001C27.0735 31.0194 28.5832 30.1514 28.5832 28.5834C28.5832 25.5279 22.8525 25.1207 22.198 25.0846C21.8748 25.0426 21.603 25.3109 21.5843 25.6306C21.5747 25.7842 21.6262 25.9354 21.7276 26.0513C21.829 26.1671 21.9721 26.2381 22.1257 26.2489C22.1665 26.2513 26.2498 26.5977 26.2498 28.5834C26.2498 30.5691 22.1665 30.9156 22.1257 30.9179C22.114 30.9191 22.1058 30.9249 22.0953 30.9261C22.0256 30.9305 21.9574 30.9493 21.8952 30.9812C21.833 31.0131 21.778 31.0575 21.7337 31.1116L21.7162 31.1361C21.6811 31.1805 21.6524 31.2296 21.631 31.2819C21.6182 31.3134 21.6123 31.3484 21.6065 31.3822C21.6007 31.4102 21.5867 31.4359 21.5843 31.4639C21.5832 31.4756 21.589 31.4872 21.589 31.5001C21.589 31.5129 21.5832 31.5246 21.5843 31.5362C21.5867 31.5654 21.5995 31.5899 21.6065 31.6179C21.6135 31.6517 21.6193 31.6867 21.6322 31.7194C21.6483 31.7556 21.6683 31.7901 21.6917 31.8221C21.7115 31.8489 21.7267 31.8769 21.75 31.9003C21.7787 31.9278 21.8104 31.9521 21.8445 31.9726C21.8725 31.9924 21.897 32.0111 21.9273 32.0262C21.9649 32.0423 22.0046 32.0529 22.0452 32.0578C22.072 32.0648 22.0965 32.0787 22.1257 32.0811C22.1665 32.0846 26.2498 32.4311 26.2498 34.4167C26.2498 36.4024 22.1665 36.7489 22.1257 36.7512C21.9741 36.7608 21.8322 36.8291 21.7301 36.9416C21.6281 37.0542 21.574 37.2021 21.5793 37.3539C21.5846 37.5057 21.649 37.6494 21.7586 37.7545C21.8683 37.8596 22.0146 37.9178 22.1665 37.9167L22.198 37.9156C22.8525 37.8794 28.5832 37.4722 28.5832 34.4167C28.5832 32.8487 27.0735 31.9807 25.516 31.5001ZM36.1677 18.6668C35.9863 18.6671 35.8074 18.6251 35.6452 18.5441C35.4829 18.4631 35.3418 18.3453 35.2332 18.2001C32.152 14.0923 28.162 14.0013 27.9928 14.0001C27.6844 13.9967 27.3898 13.8716 27.1733 13.6519C26.9567 13.4323 26.8357 13.136 26.8367 12.8276C26.8373 12.5195 26.9601 12.2242 27.1782 12.0066C27.3962 11.789 27.6918 11.6667 27.9998 11.6668C28.2145 11.6668 33.293 11.7251 37.0998 16.8001C37.2298 16.9733 37.3089 17.1793 37.3284 17.395C37.3479 17.6107 37.307 17.8276 37.2103 18.0213C37.1135 18.2151 36.9647 18.3781 36.7806 18.492C36.5965 18.606 36.3842 18.6665 36.1677 18.6668ZM5.83201 18.6668C5.61544 18.6665 5.40321 18.606 5.21907 18.492C5.03494 18.3781 4.88617 18.2151 4.78941 18.0213C4.69266 17.8276 4.65174 17.6107 4.67124 17.395C4.69075 17.1793 4.7699 16.9733 4.89984 16.8001C8.7055 11.7251 13.7852 11.6668 13.9998 11.6668C14.3093 11.6661 14.6062 11.7885 14.8255 12.0068C15.0447 12.2252 15.1682 12.5217 15.1688 12.8311C15.1695 13.1405 15.0471 13.4375 14.8288 13.6567C14.6104 13.876 14.3139 13.9995 14.0045 14.0001C13.8225 14.0024 9.84067 14.1004 6.76534 18.2001C6.65698 18.3453 6.51613 18.4632 6.35406 18.5442C6.19199 18.6252 6.0132 18.6672 5.83201 18.6668Z" fill="#664500"/>
</g>
<defs>
<clipPath id="clip0_111_3883">
<rect width="42" height="42" fill="white"/>
</clipPath>
</defs>
</svg>
